<svg width="24" height="24" xmlns="http://www.w3.org/2000/svg">

 <g>
  <title>background</title>
  <rect fill="none" id="canvas_background" height="402" width="582" y="-1" x="-1"/>
 </g>
 <g>
  <title>Layer 1</title>
  <path id="svg_1" fill="none" d="m0,0l24,0l0,24l-24,0l0,-24z"/>
  <path fill="#ec407a" id="svg_2" d="m20.5,11l-1.5,0l0,-4c0,-1.1 -0.9,-2 -2,-2l-4,0l0,-1.5c0,-1.38 -1.12,-2.5 -2.5,-2.5s-2.5,1.12 -2.5,2.5l0,1.5l-4,0c-1.1,0 -1.99,0.9 -1.99,2l0,3.8l1.49,0c1.49,0 2.7,1.21 2.7,2.7s-1.21,2.7 -2.7,2.7l-1.5,0l0,3.8c0,1.1 0.9,2 2,2l3.8,0l0,-1.5c0,-1.49 1.21,-2.7 2.7,-2.7c1.49,0 2.7,1.21 2.7,2.7l0,1.5l3.8,0c1.1,0 2,-0.9 2,-2l0,-4l1.5,0c1.38,0 2.5,-1.12 2.5,-2.5s-1.12,-2.5 -2.5,-2.5z"/>
 </g>
</svg>