<svg width="24" height="24" xmlns="http://www.w3.org/2000/svg">

 <g>
  <title>background</title>
  <rect fill="none" id="canvas_background" height="402" width="582" y="-1" x="-1"/>
 </g>
 <g>
  <title>Layer 1</title>
  <path fill="#fb8c00" id="svg_1" d="m22,21c-1.11,0 -1.73,-0.37 -2.18,-0.64c-0.37,-0.22 -0.6,-0.36 -1.15,-0.36c-0.56,0 -0.78,0.13 -1.15,0.36c-0.46,0.27 -1.07,0.64 -2.18,0.64s-1.73,-0.37 -2.18,-0.64c-0.37,-0.22 -0.6,-0.36 -1.15,-0.36c-0.56,0 -0.78,0.13 -1.15,0.36c-0.46,0.27 -1.08,0.64 -2.19,0.64c-1.11,0 -1.73,-0.37 -2.18,-0.64c-0.37,-0.23 -0.6,-0.36 -1.15,-0.36s-0.78,0.13 -1.15,0.36c-0.46,0.27 -1.08,0.64 -2.19,0.64l0,-2c0.56,0 0.78,-0.13 1.15,-0.36c0.46,-0.27 1.08,-0.64 2.19,-0.64s1.73,0.37 2.18,0.64c0.37,0.23 0.59,0.36 1.15,0.36c0.56,0 0.78,-0.13 1.15,-0.36c0.46,-0.27 1.08,-0.64 2.19,-0.64c1.11,0 1.73,0.37 2.18,0.64c0.37,0.22 0.6,0.36 1.15,0.36s0.78,-0.13 1.15,-0.36c0.45,-0.27 1.07,-0.64 2.18,-0.64s1.73,0.37 2.18,0.64c0.37,0.23 0.59,0.36 1.15,0.36l0,2zm0,-4.5c-1.11,0 -1.73,-0.37 -2.18,-0.64c-0.37,-0.22 -0.6,-0.36 -1.15,-0.36c-0.56,0 -0.78,0.13 -1.15,0.36c-0.45,0.27 -1.07,0.64 -2.18,0.64s-1.73,-0.37 -2.18,-0.64c-0.37,-0.22 -0.6,-0.36 -1.15,-0.36c-0.56,0 -0.78,0.13 -1.15,0.36c-0.45,0.27 -1.07,0.64 -2.18,0.64s-1.73,-0.37 -2.18,-0.64c-0.37,-0.22 -0.6,-0.36 -1.15,-0.36s-0.78,0.13 -1.15,0.36c-0.47,0.27 -1.09,0.64 -2.2,0.64l0,-2c0.56,0 0.78,-0.13 1.15,-0.36c0.45,-0.27 1.07,-0.64 2.18,-0.64s1.73,0.37 2.18,0.64c0.37,0.22 0.6,0.36 1.15,0.36c0.56,0 0.78,-0.13 1.15,-0.36c0.45,-0.27 1.07,-0.64 2.18,-0.64s1.73,0.37 2.18,0.64c0.37,0.22 0.6,0.36 1.15,0.36s0.78,-0.13 1.15,-0.36c0.45,-0.27 1.07,-0.64 2.18,-0.64s1.73,0.37 2.18,0.64c0.37,0.22 0.6,0.36 1.15,0.36l0,2l0.02,0zm-13.31,-4.5c0.56,0 0.78,-0.13 1.15,-0.36c0.46,-0.27 1.08,-0.64 2.19,-0.64c1.11,0 1.73,0.37 2.18,0.64c0.37,0.22 0.6,0.36 1.15,0.36s0.78,-0.13 1.15,-0.36c0.12,-0.07 0.26,-0.15 0.41,-0.23l-6.44,-6.41c-1.55,-1.55 -2.98,-2.01 -5.48,-2l0,2.5c1.82,-0.01 2.89,0.39 4,1.5l1,1l-3.25,3.25c0.31,0.12 0.56,0.27 0.77,0.39c0.37,0.23 0.59,0.36 1.15,0.36l0.02,0z"/>
  <circle fill="#fb8c00" id="svg_2" r="2.5" cy="5.5" cx="16.5"/>
 </g>
</svg>