<svg width="24" height="24" xmlns="http://www.w3.org/2000/svg">

 <g>
  <title>background</title>
  <rect fill="none" id="canvas_background" height="402" width="582" y="-1" x="-1"/>
 </g>
 <g>
  <title>Layer 1</title>
  <path id="svg_1" fill="none" d="m0,0l24,0l0,24l-24,0l0,-24z"/>
  <path fill="#ab47bc" id="svg_2" d="m20,6l-4,0l0,-2c0,-1.11 -0.89,-2 -2,-2l-4,0c-1.11,0 -2,0.89 -2,2l0,2l-4,0c-1.11,0 -1.99,0.89 -1.99,2l-0.01,11c0,1.11 0.89,2 2,2l16,0c1.11,0 2,-0.89 2,-2l0,-11c0,-1.11 -0.89,-2 -2,-2zm-6,0l-4,0l0,-2l4,0l0,2z"/>
 </g>
</svg>